<?xml version="1.0" encoding="UTF-8"?>
<!DOCTYPE svg PUBLIC "-//W3C//DTD SVG 1.1//EN" "http://www.w3.org/Graphics/SVG/1.1/DTD/svg11.dtd">
<!-- Creator: CorelDRAW 2020 (64 Bit) -->
<svg xmlns="http://www.w3.org/2000/svg" xml:space="preserve" width="210.339mm" height="297.169mm" version="1.1" style="shape-rendering:geometricPrecision; text-rendering:geometricPrecision; image-rendering:optimizeQuality; fill-rule:evenodd; clip-rule:evenodd"
viewBox="0 0 21033.9 29716.92"
 xmlns:xlink="http://www.w3.org/1999/xlink"
 xmlns:xodm="http://www.corel.com/coreldraw/odm/2003">
 <defs>
  <style type="text/css">
   <![CDATA[
    .fil0 {fill:black}
   ]]>
  </style>
 </defs>
 <g id="Camada_x0020_1">
  <metadata id="CorelCorpID_0Corel-Layer"/>
  <g id="_1980690176064">
   <g id="Logo-Incentive.me">
    <g id="incentiveme-vertical">
     <path id="Combined-Shape-Copy" class="fil0" d="M12249.25 15009.17c52.77,17.03 102.08,45.62 147.9,85.83 45.84,40.15 93.47,98.09 143.03,173.79l-555.01 320.44c32.28,35.84 72.5,61.27 120.65,76.33 66.43,18.47 131.38,9.32 194.92,-27.36 11.3,-6.52 24.1,-16.51 38.42,-29.99 14.25,-13.43 28.13,-28.1 41.6,-43.98 13.47,-15.91 26.47,-31.53 39.1,-46.92 12.59,-15.4 22.87,-28.25 30.8,-38.66l115.18 109.08c-27.29,33.12 -51,60.45 -71.12,81.9 -20.12,21.42 -41.34,42.97 -63.68,64.58 -22.37,21.59 -42.69,37.66 -60.98,48.22 -103.6,59.81 -210.11,74.37 -319.52,43.67 -108.51,-31.18 -192.95,-98.93 -253.16,-203.22 -61.2,-106.01 -78.38,-213.14 -51.47,-321.37 27.77,-108.74 93.02,-192.78 195.74,-252.09 101.84,-58.8 204.41,-72.19 307.6,-40.25zm-1947.9 629.44l0 192.87 -170.8 0 0 -192.87 170.8 0zm1036.19 -633.74c34.98,0 66.96,5.01 95.98,15.02 28.97,10.01 54.96,26.06 77.94,48.1 44.96,44.11 67.45,101.18 67.45,171.33l0 428.32 110.95 0 0 163.84 -284.86 0 0 -583.15c0,-27.06 -5.49,-46.58 -16.47,-58.61 -11.01,-12.02 -29.02,-18.05 -54.01,-18.05 -35.97,0 -72.44,10.04 -109.43,30.08 -35.02,17.02 -68.47,41.11 -100.42,72.13l0 557.6 -173.97 0 0 -583.15c0,-17.02 -1.5,-30.06 -4.49,-39.06 -2.99,-9.02 -6.96,-16.01 -11.99,-21.05 -5.01,-4.01 -11.53,-7.76 -19.5,-11.27 -8.01,-3.5 -20.01,-5.28 -35.96,-5.28 -15.02,0 -31.47,2.53 -49.5,7.53 -17.99,5.01 -38,13.05 -59.97,24.05 -19,9.02 -36.73,19.03 -53.24,30.07 -16.45,11 -31.71,22.55 -45.72,34.55l0 399.77 116.98 0 0 163.84 -290.9 0 0 -643.26 -128.94 0 0 -163.83 302.86 0 0 46.6c32,-20.04 65.99,-36.08 101.97,-48.1 35.98,-12.03 73.45,-18.02 112.44,-18.02 40.97,0 78.71,7.49 113.21,22.55 34.46,15.02 63.17,40.08 86.22,75.14 24.97,-19.05 52.98,-36.59 83.93,-52.62 29.02,-14 57.76,-25.01 86.22,-33.05 28.5,-8.04 56.23,-12.02 83.22,-12.02zm680.18 188.35c-58.36,33.7 -94.18,82.21 -107.51,145.52 -7.01,34.2 -6.73,68.81 0.75,103.84l378.7 -218.64c-31.39,-28.21 -66.96,-47.65 -106.79,-58.26 -53.5,-14.28 -108.56,-5.13 -165.15,27.54zm-1685.98 -1262.93l0 163.28 151.44 0 0 0.06 279.48 0.01 0 642.81 122.75 0 0 163.72 -295.51 0 -2.97 -67.58 0 -575.23 -103.75 -0.01 0 1.05 -151.44 0 0 465.73c0,16.15 1.53,26.22 4.6,30.24l7.63 0 139.21 -22.66 0 166.31 -145.33 24.19c-28.54,0 -54.29,-3.77 -77.24,-11.33 -22.91,-7.58 -43.08,-20.44 -60.38,-38.57 -17.39,-17.12 -29.34,-37.04 -35.99,-59.72 -6.62,-22.69 -9.92,-47.1 -9.92,-73.35l0 -480.84 -128.46 0 0 -164.83 128.46 0 0 -158.76 177.42 -4.52zm1917.51 158.59c52.77,17.03 102.08,45.62 147.9,85.83 45.84,40.15 93.47,98.09 143.03,173.79l-555.01 320.44c32.28,35.84 72.5,61.27 120.65,76.33 66.43,18.47 131.38,9.33 194.92,-27.36 11.3,-6.52 24.1,-16.52 38.42,-29.99 14.25,-13.43 28.13,-28.1 41.6,-43.99 13.47,-15.9 26.47,-31.51 39.1,-46.91 12.59,-15.4 22.87,-28.25 30.8,-38.66l115.18 109.08c-27.29,33.12 -51,60.45 -71.12,81.9 -20.12,21.42 -41.34,42.97 -63.68,64.58 -22.37,21.59 -42.69,37.66 -60.98,48.22 -103.6,59.81 -210.11,74.37 -319.52,43.67 -108.51,-31.18 -192.95,-98.93 -253.16,-203.22 -61.2,-106.01 -78.38,-213.14 -51.47,-321.38 27.77,-108.73 93.02,-192.77 195.74,-252.08 101.84,-58.79 204.41,-72.18 307.6,-40.25zm-1003.54 1.22l0 164.52 -77.17 0 137.69 369.78 160.34 -434.68 37.83 -99.62 240.55 0 0 164.52 -125.56 0 -242.03 656.57 -139.23 0 -252.61 -656.57 -133.17 0 0 -164.52 393.36 0zm772.01 182.83c-58.36,33.7 -94.18,82.21 -107.51,145.52 -7.01,34.2 -6.73,68.81 0.75,103.84l378.7 -218.64c-31.39,-28.2 -66.96,-47.65 -106.79,-58.26 -53.5,-14.28 -108.56,-5.12 -165.15,27.54zm-1364.81 -430.82c28.24,0 54.03,10.53 77.26,31.53 21.22,23.04 31.82,48.57 31.82,76.63 0,31.04 -10.6,57.04 -31.82,78.08 -23.23,21.04 -49.02,31.56 -77.26,31.56 -28.3,0 -54.08,-10.52 -77.29,-31.56 -21.19,-23.04 -31.82,-48.57 -31.82,-76.6 0,-31.03 10.63,-57.07 31.82,-78.11 23.21,-21 48.99,-31.53 77.29,-31.53zm768.85 -867.38c52.75,17.04 102.05,45.63 147.86,85.83 45.84,40.17 93.49,98.1 143.03,173.79l-555 320.43c32.3,35.83 72.51,61.27 120.69,76.31 66.41,18.48 131.35,9.38 194.91,-27.32 11.31,-6.52 24.09,-16.51 38.4,-30.01 14.26,-13.44 28.15,-28.11 41.63,-44 13.46,-15.91 26.44,-31.51 39.07,-46.9 12.59,-15.36 22.85,-28.24 30.83,-38.68l115.18 109.08c-27.32,33.14 -51.01,60.45 -71.14,81.91 -20.12,21.42 -41.36,42.98 -63.68,64.58 -22.36,21.63 -42.66,37.68 -60.97,48.26 -103.59,59.8 -210.15,74.35 -319.53,43.67 -108.53,-31.21 -192.92,-98.96 -253.13,-203.25 -61.22,-106.03 -78.43,-213.14 -51.5,-321.38 27.77,-108.74 93.03,-192.76 195.74,-252.06 101.87,-58.82 204.38,-72.22 307.61,-40.26zm-896.68 -25.35c37.41,0 73.32,5.01 107.74,15.03 34.35,10.02 66.23,26.61 95.58,49.66l139.62 0 0 322.02 -160.85 0c-2.06,-57.19 -8.12,-98.06 -18.21,-122.66 -10.14,-24.55 -22.75,-42.36 -37.96,-53.41 -36.39,-29.09 -78.36,-43.64 -125.92,-43.64 -63.74,0 -115.31,22.58 -154.78,67.71 -41.47,47.16 -62.22,110.37 -62.22,189.6 0,42.14 5.56,78.52 16.72,109.11 11.08,30.61 26.78,57.43 47.05,80.49 40.44,45.14 95.04,67.71 163.86,67.71 26.29,0 49.29,-3.24 69.02,-9.79 19.76,-6.51 37.68,-15.78 53.88,-27.81 16.18,-13.05 31.6,-29.84 46.27,-50.43 14.65,-20.55 31.62,-52.89 50.85,-97.04l151.72 64.69c-23.28,60.2 -47.33,106.84 -72.05,139.92 -24.79,33.11 -53.39,60.75 -85.76,82.76 -62.74,43.15 -134.55,64.73 -215.46,64.73 -119.37,0 -216.49,-40.14 -291.35,-120.37 -74.85,-80.25 -112.28,-181.57 -112.28,-303.97 0,-119.35 36.9,-219.16 110.8,-299.44 75.85,-83.23 170.41,-124.87 283.73,-124.87zm1674.81 11.02c33.96,0 65.26,5 93.79,15.01 28.47,10.01 54.23,26.57 77.23,49.6 43.97,43.08 66.02,99.69 66.02,169.83l0 428.35 112.47 0 0 163.82 -286.53 0 0 -583.15c0,-27.05 -5.76,-46.58 -17.23,-58.62 -11.49,-12.01 -30.27,-18.03 -56.28,-18.03 -16.99,0 -34.74,2.53 -53.22,7.52 -18.54,5.02 -38.78,13.04 -60.77,24.05 -19,9.01 -36.76,19.02 -53.28,30.06 -16.47,11.02 -31.75,22.55 -45.77,34.57l0 399.78 115.54 0 0 163.82 -289.51 0 0 -643.27 -129.02 0 0 -163.83 302.99 0 0 48.1c34.04,-20.02 69.53,-36.31 106.52,-48.85 37.01,-12.5 76.02,-18.76 117.05,-18.76zm-1009.66 198.38c-58.35,33.69 -94.19,82.19 -107.54,145.51 -6.99,34.19 -6.69,68.79 0.75,103.86l378.7 -218.64c-31.37,-28.22 -66.96,-47.67 -106.75,-58.29 -53.54,-14.27 -108.59,-5.1 -165.16,27.56zm-862.82 -1093.44l0 647.5 122.71 0 0 164.9 -295.45 0 -3.02 -68.06 0 -579.45 -125.79 0 0 -164.89 301.55 0zm621.71 -14.21c34,0 65.24,5.04 93.78,15.03 28.47,10.03 54.22,26.55 77.25,49.6 44,43.1 65.98,99.71 65.98,169.85l0 428.32 112.52 0 0 163.81 -286.5 0 0 -583.15c0,-27.03 -5.77,-46.56 -17.26,-58.58 -11.49,-12.03 -30.26,-18.05 -56.24,-18.05 -17.05,0 -34.78,2.51 -53.29,7.53 -18.52,5.01 -38.78,13.01 -60.76,24.05 -19.01,8.98 -36.76,19.03 -53.21,30.03 -16.52,11.04 -31.79,22.55 -45.77,34.59l0 399.77 115.53 0 0 163.81 -289.54 0 0 -643.25 -129.04 0 0 -163.81 303.05 0 0 48.08c33.96,-20.02 69.49,-36.31 106.51,-48.83 36.98,-12.54 75.97,-18.8 116.99,-18.8zm-730.82 -314.11c28.29,0 54.03,10.6 77.27,31.79 21.22,23.21 31.84,48.93 31.84,77.16 0,31.26 -10.62,57.47 -31.84,78.64 -23.24,21.19 -48.98,31.8 -77.27,31.8 -28.29,0 -54.04,-10.61 -77.25,-31.8 -21.24,-23.17 -31.84,-48.89 -31.84,-77.15 0,-31.25 10.6,-57.48 31.84,-78.65 23.21,-21.19 48.96,-31.79 77.25,-31.79z"/>
    </g>
   </g>
  </g>
 </g>
</svg>
